PathFileType  4	(X/Y/Z) C:\Users\antoi\Documents\MyRepositories\mobilecap\ResultsAnalysis
DataRate	CameraRate	NumFrames	NumMarkers	Units	OrigDataRate	OrigDataStartFrame	OrigNumFrames
100.0	100.0	6	51	mm	100.0	50	133
Frame#	Time	r_knee			r_shank_antsup			r_ankle			r_calc			r_5meta			r_toe			L_knee			L_shank_antsup			L_ankle			L_calc			L_5meta			L_toe			r_sh2			r_sh3			r_sh4			L_sh2			L_sh3			r_thigh1			r_thigh2			r_thigh3			r_thigh4			r_thigh5			L_thigh1			L_thigh2			L_thigh3			L_thigh4			r.ASIS			r.PSIS			L.ASIS			L.PSIS			C7			R_Shoulder			L_Shoulder			R_Sternum			L_Sternum			R_humerus			R_elbow_med			R_elbow_lat			R_forearm			R_wrist_radius			R_wrist_ulna			L_humerus			L_elbow_med			L_elbow_lat			L_forearm			L_wrist_radius			L_wrist_ulna			R_HJC			L_HJC			R_HJC_reg			L_HJC_reg			
		X1	Y1	Z1	X2	Y2	Z2	X3	Y3	Z3	X4	Y4	Z4	X5	Y5	Z5	X6	Y6	Z6	X7	Y7	Z7	X8	Y8	Z8	X9	Y9	Z9	X10	Y10	Z10	X11	Y11	Z11	X12	Y12	Z12	X13	Y13	Z13	X14	Y14	Z14	X15	Y15	Z15	X16	Y16	Z16	X17	Y17	Z17	X18	Y18	Z18	X19	Y19	Z19	X20	Y20	Z20	X21	Y21	Z21	X22	Y22	Z22	X23	Y23	Z23	X24	Y24	Z24	X25	Y25	Z25	X26	Y26	Z26	X27	Y27	Z27	X28	Y28	Z28	X29	Y29	Z29	X30	Y30	Z30	X31	Y31	Z31	X32	Y32	Z32	X33	Y33	Z33	X34	Y34	Z34	X35	Y35	Z35	X36	Y36	Z36	X37	Y37	Z37	X38	Y38	Z38	X39	Y39	Z39	X40	Y40	Z40	X41	Y41	Z41	X42	Y42	Z42	X43	Y43	Z43	X44	Y44	Z44	X45	Y45	Z45	X46	Y46	Z46	X47	Y47	Z47	X48	Y48	Z48	X49	Y49	Z49	X50	Y50	Z50	X51	Y51	Z51	

50	0.49000000	276.83444	487.56740	-37.74871	304.18007	435.02421	-48.89867	178.61205	93.51608	-117.15519	120.71306	64.10889	-170.00768	308.68565	34.17129	-80.04924	348.06628	59.60148	-135.27770	536.93801	507.02908	-318.16595	588.05367	438.72759	-326.91754	633.44269	117.73522	-283.15402	586.83124	63.63677	-231.08342	768.13349	96.26637	-302.79265	800.45219	133.79447	-251.35941	283.60302	324.89875	-73.17863	233.93553	439.83005	-17.81987	210.73684	326.79145	-29.01291	500.64176	422.63020	-342.72340	533.92512	304.92290	-337.04230	439.52147	763.91875	-70.14189	419.51793	651.62445	-71.45021	395.05019	633.44834	-12.73199	365.85268	768.66552	17.25680	348.67911	656.70780	10.79290	453.71067	816.72682	-333.73002	508.88855	686.50821	-341.63504	349.31203	774.64472	-342.40660	400.52191	649.31833	-329.31050	437.76253	949.33718	-34.50207	251.20700	986.26589	-122.64337	455.96034	938.18526	-270.23464	253.37768	980.15530	-220.32173	333.50029	1457.39561	-179.85439	387.42779	1432.95978	-26.46158	384.88365	1397.60592	-339.06455	436.30065	1353.83183	-160.67040	438.40327	1348.37906	-198.38775	458.66181	1227.05097	77.85013	429.79022	1115.07131	73.17911	469.25899	1140.96330	118.58358	606.53742	1091.18248	95.84981	694.51691	1056.98299	54.12517	686.77579	1029.86831	88.78713	304.58592	1174.73827	-411.78377	243.18535	1085.95991	-354.23249	249.82698	1091.69318	-414.27413	254.70637	954.67689	-457.80380	257.18867	844.63671	-456.60995	214.93409	853.64533	-464.74761	364.27795	868.46381	-71.76687	365.16824	869.45625	-262.43212	370.65678	881.88427	-64.58409	374.12179	872.12676	-220.45979	
51	0.50000000	283.93912	486.81258	-37.40141	310.27913	433.64655	-48.43760	179.29977	94.08277	-117.15366	120.83475	64.72417	-169.90506	308.58089	34.11464	-80.01623	348.27850	59.43966	-135.11973	548.34599	502.94855	-318.69878	601.67254	436.99734	-326.57819	663.04806	118.63088	-279.45774	618.33748	63.02165	-227.32394	798.93726	102.79789	-297.37039	828.80659	142.30698	-245.99004	287.85980	323.92453	-72.70728	240.07603	439.67795	-17.51612	214.97831	327.11713	-28.81561	515.17760	416.71671	-342.83935	553.94322	300.69944	-335.89897	450.25167	761.36137	-69.40674	429.35043	649.30606	-70.91008	404.49299	631.49778	-12.33185	376.69652	766.91737	17.61123	358.27940	655.17966	11.05598	467.31375	813.06236	-333.31284	521.21317	682.44705	-341.58743	362.60768	772.14312	-342.91905	412.68595	646.30491	-329.77863	449.58808	947.61716	-33.91544	263.86033	983.38295	-123.37150	469.32242	935.42726	-270.11603	266.45519	976.72996	-220.96900	346.05252	1454.76423	-179.89093	399.65791	1430.32047	-26.36943	397.88249	1394.69675	-339.05234	448.87165	1351.07048	-160.38560	451.03933	1345.52525	-198.12893	472.22882	1225.75706	78.66876	444.77945	1113.18494	74.38839	484.23893	1140.00730	119.59104	622.53646	1094.17772	95.15427	711.10332	1063.02846	52.10018	704.49643	1035.47705	86.80536	314.39611	1173.06507	-412.00636	252.03573	1084.94730	-354.40352	258.50431	1090.69017	-414.47543	261.66027	953.72630	-458.28718	263.01183	843.66420	-457.41546	220.73984	853.11563	-465.14704	376.91470	866.23877	-71.42554	378.78961	866.36332	-262.08426	383.08633	879.74073	-63.97471	387.24409	869.08089	-220.19977	
52	0.51000000	291.93527	485.79137	-37.11117	317.24502	431.96600	-48.11487	180.17556	94.77272	-117.08542	121.02599	65.45849	-169.66829	308.50090	34.04766	-79.98997	348.49783	59.24299	-134.96796	559.86193	499.13699	-319.01092	614.68494	435.12204	-326.34387	689.51055	119.52779	-275.78352	646.54981	62.78502	-223.39869	826.27989	108.37403	-292.43121	854.00847	149.56037	-241.24710	292.79461	322.75009	-72.35083	247.16133	439.31742	-17.21877	219.98138	327.34715	-28.62629	528.90210	411.34618	-342.25964	572.21841	296.91994	-334.15171	461.28514	758.75258	-68.69239	439.66570	646.88264	-70.28378	414.44858	629.45534	-11.81722	387.80484	765.06090	17.94622	368.32940	653.49805	11.35649	481.20740	809.71360	-333.10104	533.94357	678.72980	-341.55480	376.22775	769.77159	-343.56350	425.25095	643.46437	-330.13137	461.48214	945.80991	-33.36150	276.61802	980.49846	-124.11785	482.71490	932.68402	-270.17435	279.61597	973.35580	-221.62534	358.59680	1452.15395	-180.00077	411.90727	1427.61750	-26.31045	410.78825	1391.78069	-339.13673	461.50731	1348.27608	-160.19036	463.69663	1342.63244	-197.98018	485.64129	1224.25061	79.37335	459.47392	1111.11824	75.41791	498.92651	1138.78175	120.44754	638.02961	1096.65054	94.47570	727.10800	1068.33830	50.18331	721.49055	1040.40275	84.92840	324.45282	1171.28975	-412.28246	261.26966	1083.74760	-354.61875	267.53011	1089.51252	-414.72301	269.22024	952.60424	-458.77738	269.62846	842.54852	-458.16245	227.38647	852.32036	-465.59745	389.61552	863.95898	-71.19650	392.42487	863.31355	-261.84290	395.56111	877.49583	-63.43806	400.38348	866.00857	-220.10783	
53	0.52000000	300.86745	484.49141	-36.90196	325.10926	429.97607	-47.94595	181.20203	95.60153	-116.94831	121.32422	66.38288	-169.30647	308.46945	33.96964	-79.95689	348.72575	58.96626	-134.83325	571.60974	495.66753	-319.00520	627.32003	433.05043	-326.06286	712.48239	119.97674	-272.17979	671.09664	62.46530	-219.30579	849.82059	112.37597	-288.18664	875.94470	154.93436	-237.40025	298.43042	321.37507	-72.12102	255.23288	438.73867	-16.94824	225.76161	327.47501	-28.40128	541.98798	406.58396	-340.95184	588.76894	293.48833	-331.78749	472.67605	756.14772	-68.05122	450.50496	644.41492	-69.61797	424.92063	627.34856	-11.25512	399.16109	763.11579	18.19664	378.83765	651.68772	11.63378	495.30588	806.74905	-333.14767	547.04035	675.44641	-341.49791	390.06722	767.51827	-344.22764	438.14518	640.82835	-330.29447	473.53081	943.88575	-32.89692	289.48193	977.68432	-124.87085	496.16344	930.01183	-270.35549	292.87166	970.14905	-222.28875	371.16444	1449.62415	-180.19185	424.18391	1424.93839	-26.30977	423.58372	1388.92987	-339.33003	474.19908	1345.51897	-160.10055	476.36948	1339.77408	-197.95779	498.87495	1222.57356	79.94179	473.82900	1108.92004	76.23931	513.25282	1137.33367	121.13900	652.97565	1098.60671	93.81867	742.49925	1072.91155	48.41405	737.74025	1044.61849	83.16883	334.81581	1169.43850	-412.58824	270.96619	1082.36915	-354.84475	276.96038	1088.17757	-414.98745	277.41431	951.33021	-459.26545	277.04445	841.29500	-458.86818	234.86155	851.29468	-466.06988	402.38979	861.64035	-71.11164	406.06845	860.39047	-261.74224	408.11211	875.17074	-63.05548	413.58442	863.00873	-220.19073	
54	0.53000000	310.73227	482.93528	-36.78499	333.85731	427.70354	-47.91921	182.32871	96.58769	-116.74149	121.74961	67.60228	-168.83752	308.50098	33.88490	-79.89917	348.97211	58.56329	-134.72252	583.75260	492.57628	-318.62052	639.87960	430.74018	-325.57070	731.73582	119.59235	-268.68247	691.70487	61.66751	-215.06296	869.32555	114.27509	-284.78334	894.58846	157.87548	-234.60361	304.75141	319.82502	-72.00427	264.28486	437.96462	-16.72431	232.28021	327.51909	-28.07494	554.72582	402.49775	-339.00159	603.74025	290.33672	-328.90117	484.45800	753.59960	-67.53345	461.91629	641.98687	-68.97783	435.91140	625.21110	-10.73706	410.76992	761.10965	18.31094	389.82107	649.78192	11.82216	509.49294	804.18349	-333.49268	560.42615	672.62269	-341.43384	403.99616	765.33460	-344.76822	451.31165	638.39808	-330.17942	485.81844	941.83679	-32.57391	302.46738	974.98973	-125.60982	509.70148	927.46404	-270.60678	306.24316	967.19221	-222.95027	383.79534	1447.21695	-180.46904	436.50803	1422.36108	-26.39622	436.26456	1386.21238	-339.63797	486.93951	1342.86854	-160.13457	489.07325	1337.03080	-198.07525	511.90381	1220.76710	80.35604	487.79537	1106.63986	76.83320	527.15113	1135.71154	121.65961	667.33590	1100.05382	93.19041	757.22966	1076.75316	46.83287	753.22262	1048.10485	81.53649	345.52986	1167.54355	-412.90348	281.18732	1080.83897	-355.05782	286.84613	1086.71819	-415.24553	286.26575	949.93257	-459.74017	285.26824	839.91923	-459.54877	243.15458	850.08112	-466.53520	415.27152	859.30167	-71.18804	419.73598	857.65976	-261.80129	420.79078	872.79099	-62.89280	426.90459	860.16742	-220.44452	
55	0.54000000	321.47539	481.17768	-36.75220	343.43377	425.20074	-47.99896	183.52662	97.76294	-116.46654	122.31105	69.24229	-168.28030	308.59983	33.80115	-79.79920	349.25791	58.00798	-134.62977	596.45465	489.86611	-317.83153	652.65754	428.17097	-324.73221	747.23539	118.13063	-265.32919	708.27259	60.15645	-210.74658	884.77533	113.74450	-282.27056	910.03223	158.00669	-232.83848	311.71058	318.14807	-71.96669	274.26666	437.04570	-16.56165	239.46180	327.52190	-27.59596	567.42814	399.14241	-336.58036	617.34908	287.42971	-325.67224	496.63948	751.14788	-67.17569	473.94796	639.69321	-68.42450	447.42237	623.07477	-10.35335	422.65711	759.07107	18.25939	401.29991	647.81425	11.86819	523.65694	801.97965	-334.16204	574.01223	670.21880	-341.42815	417.89502	763.15815	-345.03208	464.72486	636.14636	-329.69497	498.39534	939.68539	-32.41157	315.60214	972.43978	-126.31606	523.36956	925.08618	-270.88691	319.75920	964.52079	-223.60100	396.52249	1444.95421	-180.83569	448.91146	1419.94197	-26.60082	448.84478	1383.68211	-340.06065	499.72912	1340.38360	-160.31200	501.84043	1334.47715	-198.34326	524.70566	1218.86808	80.60364	501.32334	1104.32620	77.19250	540.56705	1133.95891	122.01279	681.08266	1100.99724	92.59882	771.25950	1079.86288	45.46682	767.91817	1050.84646	80.03714	356.61476	1165.63635	-413.21845	291.96814	1079.20028	-355.24851	297.22666	1085.17844	-415.48201	295.79301	948.44318	-460.18979	294.30927	838.44161	-460.21530	252.25922	848.72214	-466.96731	428.30412	856.96783	-71.42090	433.46757	855.16137	-262.01641	433.64928	870.39159	-62.96855	440.39555	857.54125	-220.84860	
